<svg width="24" height="29" viewBox="0 0 24 29" fill="none" xmlns="http://www.w3.org/2000/svg">
<g clip-path="url(#clip0_14_412)">
<path d="M11.815 0.54541L15.8892 3.47119L11.815 6.36963V4.61963H9.49078C8.52463 4.61963 7.61318 4.80192 6.7564 5.1665C5.89963 5.54932 5.1568 6.05518 4.52789 6.68408C3.89898 7.31299 3.40224 8.05583 3.03765 8.9126C2.67307 9.75114 2.49078 10.6535 2.49078 11.6196V16.2954C2.49078 17.7902 2.91461 19.13 3.76226 20.3149C4.60992 21.4998 5.69 22.3475 7.0025 22.8579L5.2525 24.6079C4.48687 24.2251 3.79417 23.7511 3.17437 23.186C2.55458 22.6027 2.01682 21.951 1.56109 21.231C1.10536 20.5109 0.759009 19.7407 0.52203 18.9204C0.266822 18.0819 0.139217 17.2069 0.139217 16.2954V11.6196C0.139217 10.3436 0.385311 9.13135 0.877499 7.98291C1.36969 6.8527 2.03961 5.86833 2.88726 5.02979C3.73492 4.19124 4.72385 3.52588 5.85406 3.03369C6.98427 2.5415 8.19651 2.29541 9.49078 2.29541H11.815V0.54541ZM18.7603 3.52588L17.0377 5.24854C18.2408 5.79541 19.2252 6.63851 19.9908 7.77783C20.7564 8.91715 21.1392 10.1978 21.1392 11.6196V16.2954C21.1392 17.2616 20.9569 18.173 20.5923 19.0298C20.2278 19.8683 19.731 20.6066 19.1021 21.2446C18.4732 21.8826 17.7304 22.384 16.8736 22.7485C16.0168 23.1131 15.1054 23.2954 14.1392 23.2954H11.815V21.5454L7.74078 24.4712L11.815 27.3696V25.6196H14.1392C15.4335 25.6196 16.6457 25.3826 17.7759 24.9087C18.9061 24.4165 19.8951 23.7466 20.7427 22.8989C21.5904 22.0513 22.2603 21.0623 22.7525 19.9321C23.2447 18.8019 23.4908 17.5897 23.4908 16.2954V11.6196C23.4908 10.7629 23.3723 9.93343 23.1353 9.13135C22.9166 8.32926 22.5976 7.57731 22.1783 6.87549C21.759 6.17367 21.2577 5.5402 20.6744 4.9751C20.1093 4.40999 19.4712 3.92692 18.7603 3.52588ZM11.022 8.11963V9.81494H8.67047C8.10536 9.81494 7.62685 10.0109 7.23492 10.4028C6.84299 10.7948 6.64703 11.2733 6.64703 11.8384V12.7954C6.64703 13.3605 6.84299 13.8436 7.23492 14.2446C7.62685 14.6457 8.10536 14.8462 8.67047 14.8462H14.358C14.4491 14.8462 14.522 14.8735 14.5767 14.9282C14.6314 14.9829 14.6587 15.0467 14.6587 15.1196V16.0767C14.6587 16.1496 14.6314 16.2179 14.5767 16.2817C14.522 16.3455 14.4491 16.3774 14.358 16.3774H7.13922V18.1274H11.022V19.7954H12.772V18.1274H14.358C14.9231 18.1274 15.4061 17.9269 15.8072 17.5259C16.2082 17.1248 16.4087 16.6418 16.4087 16.0767V15.1196C16.4087 14.5545 16.2082 14.076 15.8072 13.6841C15.4061 13.2922 14.9231 13.0962 14.358 13.0962H8.67047C8.59755 13.0962 8.53375 13.0643 8.47906 13.0005C8.42437 12.9367 8.39703 12.8683 8.39703 12.7954V11.8384C8.39703 11.7655 8.42437 11.7017 8.47906 11.647C8.53375 11.5923 8.59755 11.5649 8.67047 11.5649H15.8892V9.81494H12.772V8.11963H11.022Z" fill="#050C9C"/>
</g>
<defs>
<clipPath id="clip0_14_412">
<rect width="23.63" height="28" fill="white" transform="matrix(1 0 0 -1 0 28.1899)"/>
</clipPath>
</defs>
</svg>
