<svg width="28" height="29" viewBox="0 0 28 29" fill="none" xmlns="http://www.w3.org/2000/svg">
<g clip-path="url(#clip0_14_405)">
<path d="M13.1523 9.59619V13.1235L15.2305 15.2837H18.8125L26.1953 7.90088C26.4323 8.35661 26.6328 8.82601 26.7969 9.30908C26.9609 9.79215 27.0977 10.2889 27.207 10.7993C27.2982 11.2186 27.3665 11.647 27.4121 12.0845C27.4577 12.522 27.4805 12.9595 27.4805 13.397C27.4805 15.1105 27.1523 16.7238 26.4961 18.2368C25.8581 19.7498 24.974 21.0715 23.8438 22.2017C22.7135 23.3319 21.3919 24.2251 19.8789 24.8813C18.3659 25.5194 16.7526 25.8384 15.0391 25.8384C14.5651 25.8384 14.0957 25.811 13.6309 25.7563C13.166 25.7017 12.7057 25.6287 12.25 25.5376L9.73438 28.0532L7.76562 26.1118L11.375 22.5024L12.8789 22.8306C13.2253 22.9217 13.5762 22.9855 13.9316 23.022C14.2871 23.0584 14.6562 23.0767 15.0391 23.0767C16.3698 23.0767 17.6276 22.8215 18.8125 22.311C19.9792 21.8188 21 21.1307 21.875 20.2466C22.75 19.3625 23.4427 18.3371 23.9531 17.1704C24.4635 15.9855 24.7188 14.7277 24.7188 13.397C24.7188 13.3787 24.7188 13.3605 24.7188 13.3423C24.7188 13.3241 24.7188 13.3058 24.7188 13.2876L19.9609 18.0454H14.0547L10.3906 14.2446V8.44775L15.1211 3.71729C15.1029 3.71729 15.0892 3.71729 15.0801 3.71729C15.071 3.71729 15.0573 3.71729 15.0391 3.71729C13.7083 3.71729 12.4505 3.97249 11.2656 4.48291C10.099 4.99333 9.07812 5.68604 8.20312 6.56104C7.32812 7.43604 6.63542 8.45687 6.125 9.62354C5.61458 10.8084 5.35938 12.0662 5.35938 13.397C5.35938 13.7616 5.3776 14.1216 5.41406 14.4771C5.45052 14.8325 5.51432 15.1834 5.60547 15.5298L5.93359 17.0063L2.29688 20.6157L0.355469 18.6743L2.89844 16.1313C2.78906 15.6938 2.71159 15.2472 2.66602 14.7915C2.62044 14.3358 2.59766 13.8709 2.59766 13.397C2.59766 11.6834 2.92578 10.0702 3.58203 8.55713C4.22005 7.04411 5.10417 5.72705 6.23438 4.60596C7.36458 3.48486 8.6862 2.59619 10.1992 1.93994C11.7122 1.28369 13.3255 0.955566 15.0391 0.955566C15.4766 0.955566 15.9095 0.978354 16.3379 1.02393C16.7663 1.0695 17.1901 1.13786 17.6094 1.229C18.1198 1.33838 18.6165 1.4751 19.0996 1.63916C19.5827 1.80322 20.0521 1.99463 20.5078 2.21338L13.1523 9.59619Z" fill="#050C9C"/>
</g>
<defs>
<clipPath id="clip0_14_405">
<rect width="28" height="28" fill="white" transform="matrix(1 0 0 -1 0 28.1899)"/>
</clipPath>
</defs>
</svg>
