<svg width="31" height="29" viewBox="0 0 31 29" fill="none" xmlns="http://www.w3.org/2000/svg">
<g clip-path="url(#clip0_14_398)">
<path d="M20.3766 17.9907C20.0302 17.9907 19.7385 18.1138 19.5016 18.3599C19.2646 18.606 19.1461 18.9022 19.1461 19.2485C19.1461 19.5767 19.2646 19.8638 19.5016 20.1099C19.7385 20.356 20.0302 20.479 20.3766 20.479H24.1227C24.469 20.479 24.7607 20.356 24.9977 20.1099C25.2346 19.8638 25.3531 19.5767 25.3531 19.2485C25.3531 18.9022 25.2346 18.606 24.9977 18.3599C24.7607 18.1138 24.469 17.9907 24.1227 17.9907H20.3766ZM5.44688 21.7368C5.44688 21.3905 5.56992 21.0942 5.81602 20.8481C6.06211 20.6021 6.35834 20.479 6.70469 20.479C7.03281 20.479 7.31992 20.6021 7.56602 20.8481C7.81211 21.0942 7.93516 21.3905 7.93516 21.7368C7.93516 22.0649 7.81211 22.3521 7.56602 22.5981C7.31992 22.8442 7.03281 22.9673 6.70469 22.9673C6.35834 22.9673 6.06211 22.8442 5.81602 22.5981C5.56992 22.3521 5.44688 22.0649 5.44688 21.7368ZM11.6813 20.479C11.3349 20.479 11.0387 20.6021 10.7926 20.8481C10.5465 21.0942 10.4234 21.3905 10.4234 21.7368C10.4234 22.0649 10.5465 22.3521 10.7926 22.5981C11.0387 22.8442 11.3349 22.9673 11.6813 22.9673C12.0276 22.9673 12.3193 22.8442 12.5563 22.5981C12.7932 22.3521 12.9117 22.0649 12.9117 21.7368C12.9117 21.3905 12.7932 21.0942 12.5563 20.8481C12.3193 20.6021 12.0276 20.479 11.6813 20.479ZM7.30625 0.572754C6.79584 0.572754 6.35834 0.755045 5.99375 1.11963C5.62917 1.48421 5.44688 1.92171 5.44688 2.43213V3.68994C5.44688 4.09098 5.56537 4.45101 5.80235 4.77002C6.03932 5.08903 6.34011 5.31234 6.70469 5.43994V13.0142H4.81797C3.61485 13.0142 2.58945 13.438 1.7418 14.2856C0.894142 15.1333 0.470314 16.1587 0.470314 17.3618V23.5962C0.470314 24.7993 0.894142 25.8247 1.7418 26.6724C2.58945 27.52 3.61485 27.9438 4.81797 27.9438H25.982C27.1852 27.9438 28.2105 27.52 29.0582 26.6724C29.9059 25.8247 30.3297 24.7993 30.3297 23.5962V17.3618C30.3297 16.1587 29.9059 15.1333 29.0582 14.2856C28.2105 13.438 27.1852 13.0142 25.982 13.0142H9.19297V5.43994C9.55755 5.31234 9.85378 5.08903 10.0816 4.77002C10.3095 4.45101 10.4234 4.09098 10.4234 3.68994V2.43213C10.4234 1.92171 10.2411 1.48421 9.87656 1.11963C9.51198 0.755045 9.07448 0.572754 8.56406 0.572754H7.30625ZM2.9586 17.3618C2.9586 16.8514 3.14089 16.4139 3.50547 16.0493C3.87005 15.6847 4.30755 15.5024 4.81797 15.5024H25.982C26.4924 15.5024 26.9299 15.6847 27.2945 16.0493C27.6591 16.4139 27.8414 16.8514 27.8414 17.3618V23.5962C27.8414 24.1066 27.6591 24.5441 27.2945 24.9087C26.9299 25.2733 26.4924 25.4556 25.982 25.4556H4.81797C4.30755 25.4556 3.87005 25.2733 3.50547 24.9087C3.14089 24.5441 2.9586 24.1066 2.9586 23.5962V17.3618Z" fill="#050C9C"/>
</g>
<defs>
<clipPath id="clip0_14_398">
<rect width="30.8" height="28" fill="white" transform="matrix(1 0 0 -1 0 28.1899)"/>
</clipPath>
</defs>
</svg>
