<svg width="28" height="29" viewBox="0 0 28 29" fill="none" xmlns="http://www.w3.org/2000/svg">
<path d="M7 11.8657V8.36572C7 7.07145 7.45573 5.96859 8.36719 5.05713C9.27865 4.14567 10.3815 3.68994 11.6758 3.68994H16.3242C17.6185 3.68994 18.7214 4.14567 19.6328 5.05713C20.5443 5.96859 21 7.07145 21 8.36572V10.6899H23.3242C23.9805 10.6899 24.5365 10.9178 24.9922 11.3735C25.4479 11.8293 25.6758 12.3761 25.6758 13.0142V17.1157C25.6758 17.7537 25.4479 18.3006 24.9922 18.7563C24.5365 19.2121 23.9805 19.4399 23.3242 19.4399H22.75V21.7642H23.3242C24.6185 21.7642 25.7214 21.3084 26.6328 20.397C27.5443 19.4855 28 18.3918 28 17.1157V13.0142C28 11.7381 27.5443 10.6444 26.6328 9.73291C25.7214 8.82145 24.6185 8.36572 23.3242 8.36572C23.3242 7.39958 23.1419 6.48812 22.7773 5.63135C22.4128 4.77458 21.916 4.03174 21.2871 3.40283C20.6582 2.77393 19.9154 2.27718 19.0586 1.9126C18.2018 1.54801 17.2904 1.36572 16.3242 1.36572H11.6758C10.7096 1.36572 9.79818 1.54801 8.94141 1.9126C8.08464 2.27718 7.3418 2.77393 6.71289 3.40283C6.08398 4.03174 5.58724 4.77458 5.22266 5.63135C4.85807 6.48812 4.67578 7.39958 4.67578 8.36572V9.51416H4.07422C2.94401 9.51416 1.98242 9.9152 1.18945 10.7173C0.396484 11.5194 0 12.4855 0 13.6157V17.6899C0 18.8201 0.396484 19.7817 1.18945 20.5747C1.98242 21.3677 2.94401 21.7642 4.07422 21.7642H5.25V19.4399H4.07422C3.60026 19.4399 3.1901 19.2713 2.84375 18.9341C2.4974 18.5968 2.32422 18.1821 2.32422 17.6899V13.6157C2.32422 13.1235 2.4974 12.7088 2.84375 12.3716C3.1901 12.0343 3.60026 11.8657 4.07422 11.8657H7ZM16.3242 16.4321L14.8203 17.936L13.1797 16.2681L17.5 11.9478L21.8203 16.2681L20.1797 17.936L18.6758 16.4321V25.8657H16.3242V16.4321ZM11.6758 23.0493L13.1797 21.5181L14.8203 23.186L10.5 27.5063L6.17969 23.186L7.82031 21.5181L9.32422 23.0493V13.6157H11.6758V23.0493Z" fill="#050C9C"/>
</svg>
